<svg width="24" height="24" viewBox="0 0 24 24" fill="none" xmlns="http://www.w3.org/2000/svg">
<path d="M15 21.25H9C6.57397 21.25 5.07086 20.7602 4.15533 19.8447C3.2398 18.9291 2.75 17.426 2.75 15V9C2.75 6.57397 3.2398 5.07086 4.15533 4.15533C5.07086 3.2398 6.57397 2.75 9 2.75H15C17.426 2.75 18.9291 3.2398 19.8447 4.15533C20.7602 5.07086 21.25 6.57397 21.25 9V15C21.25 17.426 20.7602 18.9291 19.8447 19.8447C18.9291 20.7602 17.426 21.25 15 21.25Z" stroke-width="1.5" stroke-linecap="round" stroke-linejoin="round"/>
<path d="M16.28 13.61C15.15 14.74 13.53 15.09 12.1 14.64L9.51001 17.22C9.33001 17.41 8.96001 17.53 8.69001 17.49L7.49001 17.33C7.09001 17.28 6.73001 16.9 6.67001 16.51L6.51001 15.31C6.47001 15.05 6.60001 14.68 6.78001 14.49L9.36001 11.91C8.92001 10.48 9.26001 8.86001 10.39 7.73001C12.01 6.11001 14.65 6.11001 16.28 7.73001C17.9 9.34001 17.9 11.98 16.28 13.61Z" stroke-width="1.5" stroke-miterlimit="10" stroke-linecap="round" stroke-linejoin="round"/>
<path d="M10.45 16.28L9.59998 15.42" stroke-width="1.5" stroke-miterlimit="10" stroke-linecap="round" stroke-linejoin="round"/>
<path d="M13.3945 10.7H13.4035" stroke-width="2" stroke-linecap="round" stroke-linejoin="round"/>
</svg>
